<svg xmlns="http://www.w3.org/2000/svg" xmlns:xlink="http://www.w3.org/1999/xlink" width="500" zoomAndPan="magnify" viewBox="0 0 375 374.999991" height="500" preserveAspectRatio="xMidYMid meet" version="1.0"><defs><g/><clipPath id="25de978833"><path d="M 94 148.847656 L 120 148.847656 L 120 172 L 94 172 Z M 94 148.847656 " clip-rule="nonzero"/></clipPath><clipPath id="f02c40e442"><path d="M 83.488281 163 L 129.988281 163 L 129.988281 208.097656 L 83.488281 208.097656 Z M 83.488281 163 " clip-rule="nonzero"/></clipPath><clipPath id="5f93613e0f"><path d="M 98 163 L 129.988281 163 L 129.988281 196 L 98 196 Z M 98 163 " clip-rule="nonzero"/></clipPath></defs><g clip-path="url(#25de978833)"><path fill="#8c52ff" d="M 119.1875 161.441406 L 119.1875 163.40625 L 114.785156 163.40625 L 114.785156 161.441406 C 114.785156 156.941406 111.121094 153.273438 106.601562 153.273438 C 102.101562 153.273438 98.433594 156.941406 98.433594 161.441406 L 98.433594 171.664062 L 94.035156 171.664062 L 94.035156 161.441406 C 94.035156 154.503906 99.664062 148.875 106.601562 148.875 C 113.539062 148.875 119.1875 154.503906 119.1875 161.441406 Z M 119.1875 161.441406 " fill-opacity="1" fill-rule="nonzero"/></g><g clip-path="url(#f02c40e442)"><path fill="#ffffff" d="M 129.761719 203.902344 L 129.761719 208.304688 L 83.457031 208.304688 L 83.457031 163.40625 L 94.035156 163.40625 L 94.035156 167.808594 L 87.859375 167.808594 L 87.859375 203.902344 Z M 129.761719 203.902344 " fill-opacity="1" fill-rule="nonzero"/></g><g clip-path="url(#5f93613e0f)"><path fill="#ffffff" d="M 129.761719 163.40625 L 129.761719 195.761719 L 113.246094 195.761719 L 102.878906 186.082031 L 102.878906 194.472656 L 98.476562 194.472656 L 98.476562 178.824219 L 114.113281 178.824219 L 114.113281 183.222656 L 106.25 183.222656 L 114.976562 191.363281 L 125.363281 191.363281 L 125.363281 167.808594 L 102.4375 167.808594 L 102.4375 163.40625 Z M 129.761719 163.40625 " fill-opacity="1" fill-rule="nonzero"/></g><g fill="#ffffff" fill-opacity="1"><g transform="translate(139.894464, 195.621638)"><g><path d="M 9.5 0 L 0.53125 -24.515625 L 5.328125 -24.515625 L 12.265625 -4.59375 L 19.234375 -24.515625 L 23.96875 -24.515625 L 15 0 Z M 9.5 0 "/></g></g></g><g fill="#ffffff" fill-opacity="1"><g transform="translate(164.370434, 195.621638)"><g><path d="M 4.453125 7.703125 L 8.484375 -1.15625 L 7.421875 -1.15625 L 0.671875 -17.375 L 5.53125 -17.375 L 10.40625 -5.15625 L 15.484375 -17.375 L 20.25 -17.375 L 9.21875 7.703125 Z M 4.453125 7.703125 "/></g></g></g><g fill="#ffffff" fill-opacity="1"><g transform="translate(185.274806, 195.621638)"><g><path d="M 8.265625 0.421875 C 6.773438 0.421875 5.550781 0.179688 4.59375 -0.296875 C 3.632812 -0.773438 2.921875 -1.410156 2.453125 -2.203125 C 1.984375 -2.992188 1.75 -3.867188 1.75 -4.828125 C 1.75 -6.441406 2.378906 -7.75 3.640625 -8.75 C 4.898438 -9.757812 6.789062 -10.265625 9.3125 -10.265625 L 13.734375 -10.265625 L 13.734375 -10.6875 C 13.734375 -11.875 13.394531 -12.75 12.71875 -13.3125 C 12.039062 -13.875 11.195312 -14.15625 10.1875 -14.15625 C 9.28125 -14.15625 8.488281 -13.9375 7.8125 -13.5 C 7.132812 -13.070312 6.710938 -12.4375 6.546875 -11.59375 L 2.171875 -11.59375 C 2.285156 -12.851562 2.707031 -13.953125 3.4375 -14.890625 C 4.175781 -15.828125 5.128906 -16.546875 6.296875 -17.046875 C 7.472656 -17.546875 8.785156 -17.796875 10.234375 -17.796875 C 12.703125 -17.796875 14.648438 -17.175781 16.078125 -15.9375 C 17.503906 -14.695312 18.21875 -12.945312 18.21875 -10.6875 L 18.21875 0 L 14.390625 0 L 13.984375 -2.796875 C 13.460938 -1.867188 12.738281 -1.097656 11.8125 -0.484375 C 10.894531 0.117188 9.710938 0.421875 8.265625 0.421875 Z M 9.28125 -3.078125 C 10.5625 -3.078125 11.554688 -3.5 12.265625 -4.34375 C 12.984375 -5.1875 13.4375 -6.226562 13.625 -7.46875 L 9.8125 -7.46875 C 8.613281 -7.46875 7.757812 -7.25 7.25 -6.8125 C 6.738281 -6.382812 6.484375 -5.851562 6.484375 -5.21875 C 6.484375 -4.539062 6.738281 -4.015625 7.25 -3.640625 C 7.757812 -3.265625 8.4375 -3.078125 9.28125 -3.078125 Z M 3.578125 -20.28125 L 3.578125 -23.46875 L 16.671875 -23.46875 L 16.671875 -20.28125 Z M 3.578125 -20.28125 "/></g></g></g><g fill="#ffffff" fill-opacity="1"><g transform="translate(205.478868, 195.621638)"><g><path d="M 2.28125 0 L 2.28125 -25.21875 L 6.765625 -25.21875 L 6.765625 -10.328125 L 12.921875 -17.375 L 18.25 -17.375 L 11.140625 -9.453125 L 19.40625 0 L 13.796875 0 L 6.765625 -8.71875 L 6.765625 0 Z M 2.28125 0 "/></g></g></g><g fill="#ffffff" fill-opacity="1"><g transform="translate(225.367783, 195.621638)"><g><path d="M 2.28125 0 L 2.28125 -25.21875 L 6.765625 -25.21875 L 6.765625 -14.71875 C 7.347656 -15.675781 8.132812 -16.425781 9.125 -16.96875 C 10.113281 -17.519531 11.253906 -17.796875 12.546875 -17.796875 C 14.691406 -17.796875 16.351562 -17.117188 17.53125 -15.765625 C 18.707031 -14.410156 19.296875 -12.425781 19.296875 -9.8125 L 19.296875 0 L 14.859375 0 L 14.859375 -9.390625 C 14.859375 -10.878906 14.554688 -12.019531 13.953125 -12.8125 C 13.359375 -13.613281 12.421875 -14.015625 11.140625 -14.015625 C 9.878906 -14.015625 8.832031 -13.566406 8 -12.671875 C 7.175781 -11.785156 6.765625 -10.550781 6.765625 -8.96875 L 6.765625 0 Z M 2.28125 0 "/></g></g></g><g fill="#ffffff" fill-opacity="1"><g transform="translate(246.657328, 195.621638)"><g><path d="M 4.453125 7.703125 L 8.484375 -1.15625 L 7.421875 -1.15625 L 0.671875 -17.375 L 5.53125 -17.375 L 10.40625 -5.15625 L 15.484375 -17.375 L 20.25 -17.375 L 9.21875 7.703125 Z M 4.453125 7.703125 "/></g></g></g><g fill="#ffffff" fill-opacity="1"><g transform="translate(267.5617, 195.621638)"><g><path d="M 8.265625 0.421875 C 6.773438 0.421875 5.550781 0.179688 4.59375 -0.296875 C 3.632812 -0.773438 2.921875 -1.410156 2.453125 -2.203125 C 1.984375 -2.992188 1.75 -3.867188 1.75 -4.828125 C 1.75 -6.441406 2.378906 -7.75 3.640625 -8.75 C 4.898438 -9.757812 6.789062 -10.265625 9.3125 -10.265625 L 13.734375 -10.265625 L 13.734375 -10.6875 C 13.734375 -11.875 13.394531 -12.75 12.71875 -13.3125 C 12.039062 -13.875 11.195312 -14.15625 10.1875 -14.15625 C 9.28125 -14.15625 8.488281 -13.9375 7.8125 -13.5 C 7.132812 -13.070312 6.710938 -12.4375 6.546875 -11.59375 L 2.171875 -11.59375 C 2.285156 -12.851562 2.707031 -13.953125 3.4375 -14.890625 C 4.175781 -15.828125 5.128906 -16.546875 6.296875 -17.046875 C 7.472656 -17.546875 8.785156 -17.796875 10.234375 -17.796875 C 12.703125 -17.796875 14.648438 -17.175781 16.078125 -15.9375 C 17.503906 -14.695312 18.21875 -12.945312 18.21875 -10.6875 L 18.21875 0 L 14.390625 0 L 13.984375 -2.796875 C 13.460938 -1.867188 12.738281 -1.097656 11.8125 -0.484375 C 10.894531 0.117188 9.710938 0.421875 8.265625 0.421875 Z M 9.28125 -3.078125 C 10.5625 -3.078125 11.554688 -3.5 12.265625 -4.34375 C 12.984375 -5.1875 13.4375 -6.226562 13.625 -7.46875 L 9.8125 -7.46875 C 8.613281 -7.46875 7.757812 -7.25 7.25 -6.8125 C 6.738281 -6.382812 6.484375 -5.851562 6.484375 -5.21875 C 6.484375 -4.539062 6.738281 -4.015625 7.25 -3.640625 C 7.757812 -3.265625 8.4375 -3.078125 9.28125 -3.078125 Z M 3.578125 -20.28125 L 3.578125 -23.46875 L 16.671875 -23.46875 L 16.671875 -20.28125 Z M 3.578125 -20.28125 "/></g></g></g><g fill="#ffffff" fill-opacity="1"><g transform="translate(287.765762, 195.621638)"><g/></g></g><g fill="#ffffff" fill-opacity="1"><g transform="translate(296.099498, 195.621638)"><g><path d="M 0.8125 0 L 9.78125 -24.515625 L 14.8125 -24.515625 L 23.78125 0 L 19.015625 0 L 17.0625 -5.671875 L 7.5 -5.671875 L 5.5 0 Z M 8.71875 -9.171875 L 15.828125 -9.171875 L 12.265625 -19.375 Z M 8.71875 -9.171875 "/></g></g></g><g fill="#ffffff" fill-opacity="1"><g transform="translate(320.645506, 195.621638)"><g><path d="M 2.375 0 L 2.375 -24.515625 L 6.859375 -24.515625 L 6.859375 0 Z M 2.375 0 "/></g></g></g></svg>