<svg xmlns="http://www.w3.org/2000/svg" xmlns:xlink="http://www.w3.org/1999/xlink" width="500" zoomAndPan="magnify" viewBox="0 0 375 374.999991" height="500" preserveAspectRatio="xMidYMid meet" version="1.0"><defs><g/><clipPath id="ca29af8b22"><path d="M 94 148.847656 L 120 148.847656 L 120 172 L 94 172 Z M 94 148.847656 " clip-rule="nonzero"/></clipPath><clipPath id="e51b94d696"><path d="M 83.488281 163 L 129.988281 163 L 129.988281 208.097656 L 83.488281 208.097656 Z M 83.488281 163 " clip-rule="nonzero"/></clipPath><clipPath id="31e4d4ad98"><path d="M 98 163 L 129.988281 163 L 129.988281 196 L 98 196 Z M 98 163 " clip-rule="nonzero"/></clipPath></defs><g clip-path="url(#ca29af8b22)"><path fill="#8c52ff" d="M 119.1875 161.441406 L 119.1875 163.40625 L 114.785156 163.40625 L 114.785156 161.441406 C 114.785156 156.941406 111.121094 153.273438 106.601562 153.273438 C 102.101562 153.273438 98.433594 156.941406 98.433594 161.441406 L 98.433594 171.664062 L 94.035156 171.664062 L 94.035156 161.441406 C 94.035156 154.503906 99.664062 148.875 106.601562 148.875 C 113.539062 148.875 119.1875 154.503906 119.1875 161.441406 Z M 119.1875 161.441406 " fill-opacity="1" fill-rule="nonzero"/></g><g clip-path="url(#e51b94d696)"><path fill="#000000" d="M 129.761719 203.902344 L 129.761719 208.304688 L 83.457031 208.304688 L 83.457031 163.40625 L 94.035156 163.40625 L 94.035156 167.808594 L 87.859375 167.808594 L 87.859375 203.902344 Z M 129.761719 203.902344 " fill-opacity="1" fill-rule="nonzero"/></g><g clip-path="url(#31e4d4ad98)"><path fill="#000000" d="M 129.761719 163.40625 L 129.761719 195.761719 L 113.246094 195.761719 L 102.878906 186.082031 L 102.878906 194.472656 L 98.476562 194.472656 L 98.476562 178.824219 L 114.113281 178.824219 L 114.113281 183.222656 L 106.25 183.222656 L 114.976562 191.363281 L 125.363281 191.363281 L 125.363281 167.808594 L 102.4375 167.808594 L 102.4375 163.40625 Z M 129.761719 163.40625 " fill-opacity="1" fill-rule="nonzero"/></g><g fill="#000000" fill-opacity="1"><g transform="translate(139.894464, 195.036208)"><g><path d="M 2.375 0 L 2.375 -24.515625 L 6.859375 -24.515625 L 6.859375 -3.5 L 17.71875 -3.5 L 17.71875 0 Z M 2.375 0 "/></g></g></g><g fill="#000000" fill-opacity="1"><g transform="translate(159.191409, 195.036208)"><g><path d="M 4.6875 -20.078125 C 3.875 -20.078125 3.203125 -20.320312 2.671875 -20.8125 C 2.148438 -21.300781 1.890625 -21.921875 1.890625 -22.671875 C 1.890625 -23.410156 2.148438 -24.019531 2.671875 -24.5 C 3.203125 -24.976562 3.875 -25.21875 4.6875 -25.21875 C 5.507812 -25.21875 6.179688 -24.976562 6.703125 -24.5 C 7.234375 -24.019531 7.5 -23.410156 7.5 -22.671875 C 7.5 -21.921875 7.234375 -21.300781 6.703125 -20.8125 C 6.179688 -20.320312 5.507812 -20.078125 4.6875 -20.078125 Z M 2.453125 0 L 2.453125 -17.375 L 6.9375 -17.375 L 6.9375 0 Z M 2.453125 0 "/></g></g></g><g fill="#000000" fill-opacity="1"><g transform="translate(168.542185, 195.036208)"><g><path d="M 2.28125 0 L 2.28125 -17.375 L 6.234375 -17.375 L 6.578125 -14.4375 C 7.117188 -15.457031 7.894531 -16.269531 8.90625 -16.875 C 9.925781 -17.488281 11.125 -17.796875 12.5 -17.796875 C 14.65625 -17.796875 16.328125 -17.117188 17.515625 -15.765625 C 18.703125 -14.410156 19.296875 -12.425781 19.296875 -9.8125 L 19.296875 0 L 14.8125 0 L 14.8125 -9.390625 C 14.8125 -10.878906 14.507812 -12.019531 13.90625 -12.8125 C 13.300781 -13.613281 12.351562 -14.015625 11.0625 -14.015625 C 9.800781 -14.015625 8.769531 -13.566406 7.96875 -12.671875 C 7.164062 -11.785156 6.765625 -10.550781 6.765625 -8.96875 L 6.765625 0 Z M 2.28125 0 "/></g></g></g><g fill="#000000" fill-opacity="1"><g transform="translate(189.835374, 195.036208)"><g><path d="M 2.28125 0 L 2.28125 -25.21875 L 6.765625 -25.21875 L 6.765625 -10.328125 L 12.921875 -17.375 L 18.25 -17.375 L 11.140625 -9.453125 L 19.40625 0 L 13.796875 0 L 6.765625 -8.71875 L 6.765625 0 Z M 2.28125 0 "/></g></g></g><g fill="#000000" fill-opacity="1"><g transform="translate(209.727687, 195.036208)"><g><path d="M 10.75 0.421875 C 8.957031 0.421875 7.367188 0.113281 5.984375 -0.5 C 4.609375 -1.125 3.523438 -2.015625 2.734375 -3.171875 C 1.941406 -4.328125 1.53125 -5.734375 1.5 -7.390625 L 6.234375 -7.390625 C 6.285156 -6.242188 6.703125 -5.28125 7.484375 -4.5 C 8.265625 -3.71875 9.34375 -3.328125 10.71875 -3.328125 C 11.90625 -3.328125 12.847656 -3.613281 13.546875 -4.1875 C 14.253906 -4.757812 14.609375 -5.523438 14.609375 -6.484375 C 14.609375 -7.484375 14.296875 -8.265625 13.671875 -8.828125 C 13.054688 -9.390625 12.234375 -9.84375 11.203125 -10.1875 C 10.179688 -10.539062 9.085938 -10.914062 7.921875 -11.3125 C 6.023438 -11.96875 4.582031 -12.804688 3.59375 -13.828125 C 2.601562 -14.859375 2.109375 -16.226562 2.109375 -17.9375 C 2.078125 -19.382812 2.414062 -20.625 3.125 -21.65625 C 3.84375 -22.695312 4.820312 -23.503906 6.0625 -24.078125 C 7.300781 -24.648438 8.722656 -24.9375 10.328125 -24.9375 C 11.960938 -24.9375 13.40625 -24.644531 14.65625 -24.0625 C 15.90625 -23.476562 16.882812 -22.660156 17.59375 -21.609375 C 18.3125 -20.554688 18.691406 -19.304688 18.734375 -17.859375 L 13.9375 -17.859375 C 13.914062 -18.722656 13.582031 -19.488281 12.9375 -20.15625 C 12.300781 -20.820312 11.410156 -21.15625 10.265625 -21.15625 C 9.285156 -21.175781 8.460938 -20.9375 7.796875 -20.4375 C 7.128906 -19.9375 6.796875 -19.207031 6.796875 -18.25 C 6.796875 -17.4375 7.050781 -16.789062 7.5625 -16.3125 C 8.082031 -15.832031 8.785156 -15.425781 9.671875 -15.09375 C 10.554688 -14.769531 11.570312 -14.421875 12.71875 -14.046875 C 13.925781 -13.628906 15.03125 -13.140625 16.03125 -12.578125 C 17.039062 -12.015625 17.847656 -11.269531 18.453125 -10.34375 C 19.066406 -9.425781 19.375 -8.242188 19.375 -6.796875 C 19.375 -5.515625 19.046875 -4.320312 18.390625 -3.21875 C 17.734375 -2.125 16.765625 -1.242188 15.484375 -0.578125 C 14.203125 0.0859375 12.625 0.421875 10.75 0.421875 Z M 10.75 0.421875 "/></g></g></g><g fill="#000000" fill-opacity="1"><g transform="translate(230.635623, 195.036208)"><g><path d="M 10.015625 0 C 8.191406 0 6.734375 -0.441406 5.640625 -1.328125 C 4.546875 -2.210938 4 -3.789062 4 -6.0625 L 4 -13.625 L 1.015625 -13.625 L 1.015625 -17.375 L 4 -17.375 L 4.515625 -22.03125 L 8.484375 -22.03125 L 8.484375 -17.375 L 13.171875 -17.375 L 13.171875 -13.625 L 8.484375 -13.625 L 8.484375 -6.03125 C 8.484375 -5.1875 8.660156 -4.601562 9.015625 -4.28125 C 9.378906 -3.96875 10.003906 -3.8125 10.890625 -3.8125 L 13.0625 -3.8125 L 13.0625 0 Z M 10.015625 0 "/></g></g></g><g fill="#000000" fill-opacity="1"><g transform="translate(245.379739, 195.036208)"><g><path d="M 10.609375 0.421875 C 8.929688 0.421875 7.421875 0.0351562 6.078125 -0.734375 C 4.734375 -1.503906 3.671875 -2.570312 2.890625 -3.9375 C 2.109375 -5.300781 1.71875 -6.882812 1.71875 -8.6875 C 1.71875 -10.488281 2.113281 -12.070312 2.90625 -13.4375 C 3.695312 -14.800781 4.765625 -15.867188 6.109375 -16.640625 C 7.453125 -17.410156 8.96875 -17.796875 10.65625 -17.796875 C 12.3125 -17.796875 13.8125 -17.410156 15.15625 -16.640625 C 16.5 -15.867188 17.5625 -14.800781 18.34375 -13.4375 C 19.125 -12.070312 19.515625 -10.488281 19.515625 -8.6875 C 19.515625 -6.882812 19.125 -5.300781 18.34375 -3.9375 C 17.5625 -2.570312 16.492188 -1.503906 15.140625 -0.734375 C 13.785156 0.0351562 12.273438 0.421875 10.609375 0.421875 Z M 10.609375 -3.46875 C 11.773438 -3.46875 12.789062 -3.90625 13.65625 -4.78125 C 14.519531 -5.65625 14.953125 -6.957031 14.953125 -8.6875 C 14.953125 -10.414062 14.519531 -11.71875 13.65625 -12.59375 C 12.789062 -13.46875 11.789062 -13.90625 10.65625 -13.90625 C 9.457031 -13.90625 8.429688 -13.46875 7.578125 -12.59375 C 6.734375 -11.71875 6.3125 -10.414062 6.3125 -8.6875 C 6.3125 -6.957031 6.734375 -5.65625 7.578125 -4.78125 C 8.429688 -3.90625 9.441406 -3.46875 10.609375 -3.46875 Z M 10.609375 -3.46875 "/></g></g></g><g fill="#000000" fill-opacity="1"><g transform="translate(266.602873, 195.036208)"><g><path d="M 2.28125 0 L 2.28125 -17.375 L 6.265625 -17.375 L 6.6875 -14.125 C 7.320312 -15.238281 8.179688 -16.128906 9.265625 -16.796875 C 10.347656 -17.460938 11.628906 -17.796875 13.109375 -17.796875 L 13.109375 -13.0625 L 11.84375 -13.0625 C 10.863281 -13.0625 9.988281 -12.910156 9.21875 -12.609375 C 8.445312 -12.304688 7.84375 -11.78125 7.40625 -11.03125 C 6.976562 -10.28125 6.765625 -9.242188 6.765625 -7.921875 L 6.765625 0 Z M 2.28125 0 "/></g></g></g><g fill="#000000" fill-opacity="1"><g transform="translate(280.47145, 195.036208)"><g><path d="M 10.71875 0.421875 C 8.96875 0.421875 7.414062 0.046875 6.0625 -0.703125 C 4.707031 -1.453125 3.644531 -2.503906 2.875 -3.859375 C 2.101562 -5.210938 1.71875 -6.773438 1.71875 -8.546875 C 1.71875 -10.347656 2.097656 -11.945312 2.859375 -13.34375 C 3.617188 -14.75 4.664062 -15.84375 6 -16.625 C 7.34375 -17.40625 8.925781 -17.796875 10.75 -17.796875 C 12.457031 -17.796875 13.960938 -17.421875 15.265625 -16.671875 C 16.578125 -15.921875 17.597656 -14.898438 18.328125 -13.609375 C 19.066406 -12.316406 19.4375 -10.875 19.4375 -9.28125 C 19.4375 -9.019531 19.429688 -8.75 19.421875 -8.46875 C 19.410156 -8.195312 19.394531 -7.910156 19.375 -7.609375 L 6.171875 -7.609375 C 6.265625 -6.242188 6.734375 -5.175781 7.578125 -4.40625 C 8.429688 -3.644531 9.46875 -3.265625 10.6875 -3.265625 C 11.59375 -3.265625 12.351562 -3.46875 12.96875 -3.875 C 13.59375 -4.28125 14.054688 -4.8125 14.359375 -5.46875 L 18.921875 -5.46875 C 18.585938 -4.363281 18.039062 -3.363281 17.28125 -2.46875 C 16.53125 -1.570312 15.597656 -0.863281 14.484375 -0.34375 C 13.378906 0.164062 12.125 0.421875 10.71875 0.421875 Z M 10.75 -14.15625 C 9.65625 -14.15625 8.6875 -13.84375 7.84375 -13.21875 C 7 -12.601562 6.460938 -11.664062 6.234375 -10.40625 L 14.890625 -10.40625 C 14.816406 -11.550781 14.394531 -12.460938 13.625 -13.140625 C 12.851562 -13.816406 11.894531 -14.15625 10.75 -14.15625 Z M 10.75 -14.15625 "/></g></g></g></svg>