<svg xmlns="http://www.w3.org/2000/svg" xmlns:xlink="http://www.w3.org/1999/xlink" width="350" zoomAndPan="magnify" viewBox="0 0 262.5 98.999996" height="132" preserveAspectRatio="xMidYMid meet" version="1.0"><defs><g/><clipPath id="7e00b293d0"><path d="M 10 0.09375 L 36 0.09375 L 36 23 L 10 23 Z M 10 0.09375 " clip-rule="nonzero"/></clipPath><clipPath id="9ff49a8c3b"><path d="M 0 14 L 46.410156 14 L 46.410156 59.230469 L 0 59.230469 Z M 0 14 " clip-rule="nonzero"/></clipPath><clipPath id="7c192bae6e"><path d="M 14 14 L 46.410156 14 L 46.410156 47 L 14 47 Z M 14 14 " clip-rule="nonzero"/></clipPath></defs><g clip-path="url(#7e00b293d0)"><path fill="#8c52ff" d="M 35.632812 12.667969 L 35.632812 14.628906 L 31.238281 14.628906 L 31.238281 12.667969 C 31.238281 8.171875 27.578125 4.511719 23.070312 4.511719 C 18.578125 4.511719 14.917969 8.171875 14.917969 12.667969 L 14.917969 22.871094 L 10.527344 22.871094 L 10.527344 12.667969 C 10.527344 5.742188 16.148438 0.121094 23.070312 0.121094 C 29.996094 0.121094 35.632812 5.742188 35.632812 12.667969 Z M 35.632812 12.667969 " fill-opacity="1" fill-rule="nonzero"/></g><g clip-path="url(#9ff49a8c3b)"><path fill="#ffffff" d="M 46.1875 55.046875 L 46.1875 59.4375 L -0.0273438 59.4375 L -0.0273438 14.628906 L 10.527344 14.628906 L 10.527344 19.019531 L 4.363281 19.019531 L 4.363281 55.046875 Z M 46.1875 55.046875 " fill-opacity="1" fill-rule="nonzero"/></g><g clip-path="url(#7c192bae6e)"><path fill="#ffffff" d="M 46.1875 14.628906 L 46.1875 46.921875 L 29.703125 46.921875 L 19.351562 37.261719 L 19.351562 45.632812 L 14.960938 45.632812 L 14.960938 30.015625 L 30.566406 30.015625 L 30.566406 34.40625 L 22.71875 34.40625 L 31.429688 42.53125 L 41.792969 42.53125 L 41.792969 19.019531 L 18.914062 19.019531 L 18.914062 14.628906 Z M 46.1875 14.628906 " fill-opacity="1" fill-rule="nonzero"/></g><g fill="#ffffff" fill-opacity="1"><g transform="translate(56.299562, 46.780542)"><g><path d="M 9.46875 0 L 0.53125 -24.46875 L 5.3125 -24.46875 L 12.234375 -4.578125 L 19.1875 -24.46875 L 23.90625 -24.46875 L 14.953125 0 Z M 9.46875 0 "/></g></g></g><g fill="#ffffff" fill-opacity="1"><g transform="translate(80.729, 46.780542)"><g><path d="M 4.4375 7.6875 L 8.453125 -1.15625 L 7.40625 -1.15625 L 0.671875 -17.34375 L 5.515625 -17.34375 L 10.375 -5.140625 L 15.453125 -17.34375 L 20.203125 -17.34375 L 9.1875 7.6875 Z M 4.4375 7.6875 "/></g></g></g><g fill="#ffffff" fill-opacity="1"><g transform="translate(101.59363, 46.780542)"><g><path d="M 8.25 0.421875 C 6.757812 0.421875 5.535156 0.179688 4.578125 -0.296875 C 3.617188 -0.773438 2.90625 -1.410156 2.4375 -2.203125 C 1.976562 -2.992188 1.75 -3.867188 1.75 -4.828125 C 1.75 -6.429688 2.375 -7.734375 3.625 -8.734375 C 4.882812 -9.734375 6.773438 -10.234375 9.296875 -10.234375 L 13.703125 -10.234375 L 13.703125 -10.65625 C 13.703125 -11.84375 13.363281 -12.71875 12.6875 -13.28125 C 12.007812 -13.84375 11.171875 -14.125 10.171875 -14.125 C 9.265625 -14.125 8.472656 -13.90625 7.796875 -13.46875 C 7.117188 -13.039062 6.695312 -12.40625 6.53125 -11.5625 L 2.171875 -11.5625 C 2.285156 -12.820312 2.707031 -13.914062 3.4375 -14.84375 C 4.175781 -15.78125 5.128906 -16.5 6.296875 -17 C 7.460938 -17.5 8.765625 -17.75 10.203125 -17.75 C 12.671875 -17.75 14.613281 -17.128906 16.03125 -15.890625 C 17.457031 -14.660156 18.171875 -12.914062 18.171875 -10.65625 L 18.171875 0 L 14.359375 0 L 13.953125 -2.796875 C 13.429688 -1.859375 12.710938 -1.085938 11.796875 -0.484375 C 10.878906 0.117188 9.695312 0.421875 8.25 0.421875 Z M 9.265625 -3.078125 C 10.546875 -3.078125 11.539062 -3.492188 12.25 -4.328125 C 12.957031 -5.171875 13.40625 -6.207031 13.59375 -7.4375 L 9.78125 -7.4375 C 8.59375 -7.4375 7.742188 -7.222656 7.234375 -6.796875 C 6.722656 -6.367188 6.46875 -5.835938 6.46875 -5.203125 C 6.46875 -4.523438 6.722656 -4 7.234375 -3.625 C 7.742188 -3.257812 8.421875 -3.078125 9.265625 -3.078125 Z M 3.5625 -20.234375 L 3.5625 -23.421875 L 16.625 -23.421875 L 16.625 -20.234375 Z M 3.5625 -20.234375 "/></g></g></g><g fill="#ffffff" fill-opacity="1"><g transform="translate(121.759282, 46.780542)"><g><path d="M 2.265625 0 L 2.265625 -25.171875 L 6.75 -25.171875 L 6.75 -10.3125 L 12.890625 -17.34375 L 18.203125 -17.34375 L 11.109375 -9.4375 L 19.359375 0 L 13.765625 0 L 6.75 -8.703125 L 6.75 0 Z M 2.265625 0 "/></g></g></g><g fill="#ffffff" fill-opacity="1"><g transform="translate(141.610386, 46.780542)"><g><path d="M 2.265625 0 L 2.265625 -25.171875 L 6.75 -25.171875 L 6.75 -14.6875 C 7.332031 -15.632812 8.117188 -16.378906 9.109375 -16.921875 C 10.097656 -17.472656 11.234375 -17.75 12.515625 -17.75 C 14.660156 -17.75 16.320312 -17.070312 17.5 -15.71875 C 18.675781 -14.375 19.265625 -12.394531 19.265625 -9.78125 L 19.265625 0 L 14.8125 0 L 14.8125 -9.375 C 14.8125 -10.863281 14.515625 -12.003906 13.921875 -12.796875 C 13.328125 -13.585938 12.390625 -13.984375 11.109375 -13.984375 C 9.859375 -13.984375 8.816406 -13.539062 7.984375 -12.65625 C 7.160156 -11.769531 6.75 -10.535156 6.75 -8.953125 L 6.75 0 Z M 2.265625 0 "/></g></g></g><g fill="#ffffff" fill-opacity="1"><g transform="translate(162.859458, 46.780542)"><g><path d="M 4.4375 7.6875 L 8.453125 -1.15625 L 7.40625 -1.15625 L 0.671875 -17.34375 L 5.515625 -17.34375 L 10.375 -5.140625 L 15.453125 -17.34375 L 20.203125 -17.34375 L 9.1875 7.6875 Z M 4.4375 7.6875 "/></g></g></g><g fill="#ffffff" fill-opacity="1"><g transform="translate(183.724088, 46.780542)"><g><path d="M 8.25 0.421875 C 6.757812 0.421875 5.535156 0.179688 4.578125 -0.296875 C 3.617188 -0.773438 2.90625 -1.410156 2.4375 -2.203125 C 1.976562 -2.992188 1.75 -3.867188 1.75 -4.828125 C 1.75 -6.429688 2.375 -7.734375 3.625 -8.734375 C 4.882812 -9.734375 6.773438 -10.234375 9.296875 -10.234375 L 13.703125 -10.234375 L 13.703125 -10.65625 C 13.703125 -11.84375 13.363281 -12.71875 12.6875 -13.28125 C 12.007812 -13.84375 11.171875 -14.125 10.171875 -14.125 C 9.265625 -14.125 8.472656 -13.90625 7.796875 -13.46875 C 7.117188 -13.039062 6.695312 -12.40625 6.53125 -11.5625 L 2.171875 -11.5625 C 2.285156 -12.820312 2.707031 -13.914062 3.4375 -14.84375 C 4.175781 -15.78125 5.128906 -16.5 6.296875 -17 C 7.460938 -17.5 8.765625 -17.75 10.203125 -17.75 C 12.671875 -17.75 14.613281 -17.128906 16.03125 -15.890625 C 17.457031 -14.660156 18.171875 -12.914062 18.171875 -10.65625 L 18.171875 0 L 14.359375 0 L 13.953125 -2.796875 C 13.429688 -1.859375 12.710938 -1.085938 11.796875 -0.484375 C 10.878906 0.117188 9.695312 0.421875 8.25 0.421875 Z M 9.265625 -3.078125 C 10.546875 -3.078125 11.539062 -3.492188 12.25 -4.328125 C 12.957031 -5.171875 13.40625 -6.207031 13.59375 -7.4375 L 9.78125 -7.4375 C 8.59375 -7.4375 7.742188 -7.222656 7.234375 -6.796875 C 6.722656 -6.367188 6.46875 -5.835938 6.46875 -5.203125 C 6.46875 -4.523438 6.722656 -4 7.234375 -3.625 C 7.742188 -3.257812 8.421875 -3.078125 9.265625 -3.078125 Z M 3.5625 -20.234375 L 3.5625 -23.421875 L 16.625 -23.421875 L 16.625 -20.234375 Z M 3.5625 -20.234375 "/></g></g></g><g fill="#ffffff" fill-opacity="1"><g transform="translate(203.88974, 46.780542)"><g/></g></g><g fill="#ffffff" fill-opacity="1"><g transform="translate(212.207632, 46.780542)"><g><path d="M 0.796875 0 L 9.75 -24.46875 L 14.78125 -24.46875 L 23.734375 0 L 18.984375 0 L 17.015625 -5.65625 L 7.484375 -5.65625 L 5.484375 0 Z M 8.703125 -9.15625 L 15.796875 -9.15625 L 12.234375 -19.328125 Z M 8.703125 -9.15625 "/></g></g></g><g fill="#ffffff" fill-opacity="1"><g transform="translate(236.706975, 46.780542)"><g><path d="M 2.375 0 L 2.375 -24.46875 L 6.84375 -24.46875 L 6.84375 0 Z M 2.375 0 "/></g></g></g></svg>