<svg xmlns="http://www.w3.org/2000/svg" xmlns:xlink="http://www.w3.org/1999/xlink" width="349" zoomAndPan="magnify" viewBox="0 0 261.75 64.499998" height="86" preserveAspectRatio="xMidYMid meet" version="1.0"><defs><g/><clipPath id="9e15d738af"><path d="M 0.882812 14 L 47 14 L 47 58.792969 L 0.882812 58.792969 Z M 0.882812 14 " clip-rule="nonzero"/></clipPath></defs><path fill="#8c52ff" d="M 36.308594 12.5 L 36.308594 14.449219 L 31.941406 14.449219 L 31.941406 12.5 C 31.941406 8.03125 28.300781 4.394531 23.820312 4.394531 C 19.351562 4.394531 15.714844 8.03125 15.714844 12.5 L 15.714844 22.644531 L 11.347656 22.644531 L 11.347656 12.5 C 11.347656 5.617188 16.9375 0.0273438 23.820312 0.0273438 C 30.703125 0.0273438 36.308594 5.617188 36.308594 12.5 Z M 36.308594 12.5 " fill-opacity="1" fill-rule="nonzero"/><g clip-path="url(#9e15d738af)"><path fill="#000000" d="M 46.800781 54.632812 L 46.800781 59 L 0.855469 59 L 0.855469 14.449219 L 11.347656 14.449219 L 11.347656 18.816406 L 5.21875 18.816406 L 5.21875 54.632812 Z M 46.800781 54.632812 " fill-opacity="1" fill-rule="nonzero"/></g><path fill="#000000" d="M 46.800781 14.449219 L 46.800781 46.554688 L 30.414062 46.554688 L 20.125 36.949219 L 20.125 45.277344 L 15.757812 45.277344 L 15.757812 29.746094 L 31.273438 29.746094 L 31.273438 34.113281 L 23.472656 34.113281 L 32.128906 42.191406 L 42.433594 42.191406 L 42.433594 18.816406 L 19.6875 18.816406 L 19.6875 14.449219 Z M 46.800781 14.449219 " fill-opacity="1" fill-rule="nonzero"/><g fill="#000000" fill-opacity="1"><g transform="translate(56.855595, 45.834657)"><g><path d="M 9.421875 0 L 0.515625 -24.328125 L 5.28125 -24.328125 L 12.15625 -4.546875 L 19.078125 -24.328125 L 23.765625 -24.328125 L 14.875 0 Z M 9.421875 0 "/></g></g></g><g fill="#000000" fill-opacity="1"><g transform="translate(81.147431, 45.834657)"><g><path d="M 4.40625 7.640625 L 8.40625 -1.140625 L 7.359375 -1.140625 L 0.65625 -17.234375 L 5.484375 -17.234375 L 10.328125 -5.109375 L 15.359375 -17.234375 L 20.078125 -17.234375 L 9.140625 7.640625 Z M 4.40625 7.640625 "/></g></g></g><g fill="#000000" fill-opacity="1"><g transform="translate(101.894537, 45.834657)"><g><path d="M 8.203125 0.421875 C 6.722656 0.421875 5.503906 0.1875 4.546875 -0.28125 C 3.597656 -0.757812 2.890625 -1.394531 2.421875 -2.1875 C 1.960938 -2.976562 1.734375 -3.847656 1.734375 -4.796875 C 1.734375 -6.390625 2.359375 -7.6875 3.609375 -8.6875 C 4.859375 -9.6875 6.738281 -10.1875 9.25 -10.1875 L 13.625 -10.1875 L 13.625 -10.59375 C 13.625 -11.78125 13.285156 -12.648438 12.609375 -13.203125 C 11.941406 -13.753906 11.109375 -14.03125 10.109375 -14.03125 C 9.203125 -14.03125 8.410156 -13.816406 7.734375 -13.390625 C 7.066406 -12.960938 6.65625 -12.332031 6.5 -11.5 L 2.15625 -11.5 C 2.269531 -12.75 2.691406 -13.835938 3.421875 -14.765625 C 4.148438 -15.691406 5.09375 -16.40625 6.25 -16.90625 C 7.414062 -17.40625 8.710938 -17.65625 10.140625 -17.65625 C 12.597656 -17.65625 14.53125 -17.039062 15.9375 -15.8125 C 17.351562 -14.582031 18.0625 -12.84375 18.0625 -10.59375 L 18.0625 0 L 14.28125 0 L 13.859375 -2.78125 C 13.347656 -1.851562 12.632812 -1.085938 11.71875 -0.484375 C 10.8125 0.117188 9.640625 0.421875 8.203125 0.421875 Z M 9.203125 -3.0625 C 10.484375 -3.0625 11.472656 -3.476562 12.171875 -4.3125 C 12.878906 -5.144531 13.328125 -6.175781 13.515625 -7.40625 L 9.734375 -7.40625 C 8.546875 -7.40625 7.695312 -7.1875 7.1875 -6.75 C 6.675781 -6.320312 6.421875 -5.796875 6.421875 -5.171875 C 6.421875 -4.503906 6.675781 -3.984375 7.1875 -3.609375 C 7.695312 -3.242188 8.367188 -3.0625 9.203125 -3.0625 Z M 3.546875 -20.125 L 3.546875 -23.28125 L 16.53125 -23.28125 L 16.53125 -20.125 Z M 3.546875 -20.125 "/></g></g></g><g fill="#000000" fill-opacity="1"><g transform="translate(121.946605, 45.834657)"><g><path d="M 2.265625 0 L 2.265625 -25.015625 L 6.703125 -25.015625 L 6.703125 -10.25 L 12.828125 -17.234375 L 18.109375 -17.234375 L 11.046875 -9.375 L 19.25 0 L 13.6875 0 L 6.703125 -8.65625 L 6.703125 0 Z M 2.265625 0 "/></g></g></g><g fill="#000000" fill-opacity="1"><g transform="translate(141.6859, 45.834657)"><g><path d="M 2.265625 0 L 2.265625 -25.015625 L 6.703125 -25.015625 L 6.703125 -14.59375 C 7.285156 -15.539062 8.066406 -16.285156 9.046875 -16.828125 C 10.035156 -17.378906 11.164062 -17.65625 12.4375 -17.65625 C 14.570312 -17.65625 16.222656 -16.984375 17.390625 -15.640625 C 18.554688 -14.296875 19.140625 -12.328125 19.140625 -9.734375 L 19.140625 0 L 14.734375 0 L 14.734375 -9.3125 C 14.734375 -10.789062 14.4375 -11.925781 13.84375 -12.71875 C 13.257812 -13.507812 12.328125 -13.90625 11.046875 -13.90625 C 9.796875 -13.90625 8.757812 -13.460938 7.9375 -12.578125 C 7.113281 -11.703125 6.703125 -10.472656 6.703125 -8.890625 L 6.703125 0 Z M 2.265625 0 "/></g></g></g><g fill="#000000" fill-opacity="1"><g transform="translate(162.815295, 45.834657)"><g><path d="M 4.40625 7.640625 L 8.40625 -1.140625 L 7.359375 -1.140625 L 0.65625 -17.234375 L 5.484375 -17.234375 L 10.328125 -5.109375 L 15.359375 -17.234375 L 20.078125 -17.234375 L 9.140625 7.640625 Z M 4.40625 7.640625 "/></g></g></g><g fill="#000000" fill-opacity="1"><g transform="translate(183.562401, 45.834657)"><g><path d="M 8.203125 0.421875 C 6.722656 0.421875 5.503906 0.1875 4.546875 -0.28125 C 3.597656 -0.757812 2.890625 -1.394531 2.421875 -2.1875 C 1.960938 -2.976562 1.734375 -3.847656 1.734375 -4.796875 C 1.734375 -6.390625 2.359375 -7.6875 3.609375 -8.6875 C 4.859375 -9.6875 6.738281 -10.1875 9.25 -10.1875 L 13.625 -10.1875 L 13.625 -10.59375 C 13.625 -11.78125 13.285156 -12.648438 12.609375 -13.203125 C 11.941406 -13.753906 11.109375 -14.03125 10.109375 -14.03125 C 9.203125 -14.03125 8.410156 -13.816406 7.734375 -13.390625 C 7.066406 -12.960938 6.65625 -12.332031 6.5 -11.5 L 2.15625 -11.5 C 2.269531 -12.75 2.691406 -13.835938 3.421875 -14.765625 C 4.148438 -15.691406 5.09375 -16.40625 6.25 -16.90625 C 7.414062 -17.40625 8.710938 -17.65625 10.140625 -17.65625 C 12.597656 -17.65625 14.53125 -17.039062 15.9375 -15.8125 C 17.351562 -14.582031 18.0625 -12.84375 18.0625 -10.59375 L 18.0625 0 L 14.28125 0 L 13.859375 -2.78125 C 13.347656 -1.851562 12.632812 -1.085938 11.71875 -0.484375 C 10.8125 0.117188 9.640625 0.421875 8.203125 0.421875 Z M 9.203125 -3.0625 C 10.484375 -3.0625 11.472656 -3.476562 12.171875 -4.3125 C 12.878906 -5.144531 13.328125 -6.175781 13.515625 -7.40625 L 9.734375 -7.40625 C 8.546875 -7.40625 7.695312 -7.1875 7.1875 -6.75 C 6.675781 -6.320312 6.421875 -5.796875 6.421875 -5.171875 C 6.421875 -4.503906 6.675781 -3.984375 7.1875 -3.609375 C 7.695312 -3.242188 8.367188 -3.0625 9.203125 -3.0625 Z M 3.546875 -20.125 L 3.546875 -23.28125 L 16.53125 -23.28125 L 16.53125 -20.125 Z M 3.546875 -20.125 "/></g></g></g><g fill="#000000" fill-opacity="1"><g transform="translate(203.614469, 45.834657)"><g/></g></g><g fill="#000000" fill-opacity="1"><g transform="translate(211.885504, 45.834657)"><g><path d="M 0.796875 0 L 9.6875 -24.328125 L 14.703125 -24.328125 L 23.59375 0 L 18.875 0 L 16.921875 -5.625 L 7.4375 -5.625 L 5.453125 0 Z M 8.65625 -9.109375 L 15.703125 -9.109375 L 12.15625 -19.21875 Z M 8.65625 -9.109375 "/></g></g></g><g fill="#000000" fill-opacity="1"><g transform="translate(236.246856, 45.834657)"><g><path d="M 2.359375 0 L 2.359375 -24.328125 L 6.8125 -24.328125 L 6.8125 0 Z M 2.359375 0 "/></g></g></g></svg>