<svg xmlns="http://www.w3.org/2000/svg" xmlns:xlink="http://www.w3.org/1999/xlink" width="350" zoomAndPan="magnify" viewBox="0 0 262.5 84.749999" height="113" preserveAspectRatio="xMidYMid meet" version="1.0"><defs><g/><clipPath id="7fdc1ce0ca"><path d="M 161 36 L 169 36 L 169 61 L 161 61 Z M 161 36 " clip-rule="nonzero"/></clipPath><clipPath id="2234b9acc2"><path d="M 156.910156 39.636719 L 167.523438 36.003906 L 174.542969 56.523438 L 163.929688 60.152344 Z M 156.910156 39.636719 " clip-rule="nonzero"/></clipPath><clipPath id="d5e2696703"><path d="M 156.910156 39.636719 L 167.523438 36.003906 L 174.542969 56.523438 L 163.929688 60.152344 Z M 156.910156 39.636719 " clip-rule="nonzero"/></clipPath><clipPath id="be030079ce"><path d="M 161 37 L 166 37 L 166 61 L 161 61 Z M 161 37 " clip-rule="nonzero"/></clipPath><clipPath id="bff955bf6c"><path d="M 156.910156 39.636719 L 167.523438 36.003906 L 174.542969 56.523438 L 163.929688 60.152344 Z M 156.910156 39.636719 " clip-rule="nonzero"/></clipPath><clipPath id="0a358edd40"><path d="M 156.910156 39.636719 L 167.523438 36.003906 L 174.542969 56.523438 L 163.929688 60.152344 Z M 156.910156 39.636719 " clip-rule="nonzero"/></clipPath></defs><g fill="#ffffff" fill-opacity="1"><g transform="translate(46.781587, 58.546188)"><g><path d="M 45.390625 -25.65625 L 36.25 0 L 27.546875 0 L 22.71875 -13.96875 L 17.703125 0 L 9 0 L -0.140625 -25.65625 L 8.375 -25.65625 L 13.625 -10.125 L 19.078125 -25.65625 L 26.734375 -25.65625 L 32.046875 -9.984375 L 37.484375 -25.65625 Z M 45.390625 -25.65625 "/></g></g></g><g fill="#ffffff" fill-opacity="1"><g transform="translate(87.193173, 58.546188)"><g><path d="M 19.59375 -26.078125 C 22.78125 -26.078125 25.34375 -25.128906 27.28125 -23.234375 C 29.226562 -21.347656 30.203125 -18.492188 30.203125 -14.671875 L 30.203125 0 L 21.203125 0 L 21.203125 -13.203125 C 21.203125 -16.703125 19.796875 -18.453125 16.984375 -18.453125 C 15.441406 -18.453125 14.203125 -17.945312 13.265625 -16.9375 C 12.335938 -15.925781 11.875 -14.414062 11.875 -12.40625 L 11.875 0 L 2.890625 0 L 2.890625 -35.125 L 11.875 -35.125 L 11.875 -23.28125 C 12.851562 -24.195312 14.003906 -24.890625 15.328125 -25.359375 C 16.660156 -25.835938 18.082031 -26.078125 19.59375 -26.078125 Z M 19.59375 -26.078125 "/></g></g></g><g fill="#ffffff" fill-opacity="1"><g transform="translate(115.301198, 58.546188)"><g><path d="M 29.90625 -25.65625 L 18.84375 1.046875 C 17.539062 4.203125 15.957031 6.414062 14.09375 7.6875 C 12.238281 8.96875 9.96875 9.609375 7.28125 9.609375 C 5.925781 9.609375 4.5625 9.394531 3.1875 8.96875 C 1.820312 8.539062 0.710938 7.976562 -0.140625 7.28125 L 2.984375 1 C 3.484375 1.46875 4.085938 1.835938 4.796875 2.109375 C 5.515625 2.378906 6.234375 2.515625 6.953125 2.515625 C 7.804688 2.515625 8.507812 2.335938 9.0625 1.984375 C 9.613281 1.640625 10.078125 1.085938 10.453125 0.328125 L -0.515625 -25.65625 L 8.703125 -25.65625 L 15 -9.984375 L 21.34375 -25.65625 Z M 29.90625 -25.65625 "/></g></g></g><g fill="#6d28d9" fill-opacity="1"><g transform="translate(139.823533, 58.546188)"><g><path d="M 36.296875 -26.078125 C 39.453125 -26.078125 41.96875 -25.128906 43.84375 -23.234375 C 45.726562 -21.347656 46.671875 -18.492188 46.671875 -14.671875 L 46.671875 0 L 37.671875 0 L 37.671875 -13.203125 C 37.671875 -15.003906 37.332031 -16.328125 36.65625 -17.171875 C 35.976562 -18.023438 35.023438 -18.453125 33.796875 -18.453125 C 32.429688 -18.453125 31.335938 -17.976562 30.515625 -17.03125 C 29.703125 -16.09375 29.296875 -14.660156 29.296875 -12.734375 L 29.296875 0 L 20.296875 0 L 20.296875 -13.203125 C 20.296875 -16.703125 19.003906 -18.453125 16.421875 -18.453125 C 15.035156 -18.453125 13.929688 -17.976562 13.109375 -17.03125 C 12.285156 -16.09375 11.875 -14.660156 11.875 -12.734375 L 11.875 0 L 2.890625 0 L 2.890625 -25.65625 L 11.453125 -25.65625 L 11.453125 -22.953125 C 12.398438 -23.992188 13.523438 -24.773438 14.828125 -25.296875 C 16.140625 -25.816406 17.570312 -26.078125 19.125 -26.078125 C 20.914062 -26.078125 22.519531 -25.742188 23.9375 -25.078125 C 25.363281 -24.421875 26.519531 -23.414062 27.40625 -22.0625 C 28.414062 -23.351562 29.691406 -24.34375 31.234375 -25.03125 C 32.785156 -25.726562 34.472656 -26.078125 36.296875 -26.078125 Z M 36.296875 -26.078125 "/></g></g></g><g fill="#ffffff" fill-opacity="1"><g transform="translate(184.457492, 58.546188)"><g><path d="M 29.109375 -12.78125 C 29.109375 -12.71875 29.0625 -11.972656 28.96875 -10.546875 L 10.3125 -10.546875 C 10.695312 -9.222656 11.429688 -8.207031 12.515625 -7.5 C 13.609375 -6.789062 14.972656 -6.4375 16.609375 -6.4375 C 17.835938 -6.4375 18.898438 -6.609375 19.796875 -6.953125 C 20.703125 -7.304688 21.613281 -7.875 22.53125 -8.65625 L 27.265625 -3.734375 C 24.765625 -0.960938 21.117188 0.421875 16.328125 0.421875 C 13.328125 0.421875 10.691406 -0.144531 8.421875 -1.28125 C 6.148438 -2.414062 4.390625 -3.992188 3.140625 -6.015625 C 1.898438 -8.035156 1.28125 -10.320312 1.28125 -12.875 C 1.28125 -15.394531 1.882812 -17.65625 3.09375 -19.65625 C 4.3125 -21.664062 5.992188 -23.238281 8.140625 -24.375 C 10.285156 -25.507812 12.695312 -26.078125 15.375 -26.078125 C 17.9375 -26.078125 20.257812 -25.546875 22.34375 -24.484375 C 24.425781 -23.429688 26.070312 -21.898438 27.28125 -19.890625 C 28.5 -17.890625 29.109375 -15.519531 29.109375 -12.78125 Z M 15.421875 -19.6875 C 14.035156 -19.6875 12.875 -19.289062 11.9375 -18.5 C 11.007812 -17.71875 10.421875 -16.644531 10.171875 -15.28125 L 20.6875 -15.28125 C 20.425781 -16.644531 19.832031 -17.71875 18.90625 -18.5 C 17.976562 -19.289062 16.816406 -19.6875 15.421875 -19.6875 Z M 15.421875 -19.6875 "/></g></g></g><g clip-path="url(#7fdc1ce0ca)"><g clip-path="url(#2234b9acc2)"><g clip-path="url(#d5e2696703)"><path fill="#ffffff" d="M 162.085938 37.863281 L 167.347656 36.066406 L 165.59375 44.566406 L 168.675781 43.507812 L 163.929688 60.140625 L 164.539062 48.292969 L 161.238281 49.609375 Z M 162.085938 37.863281 " fill-opacity="1" fill-rule="nonzero"/></g></g></g><g clip-path="url(#be030079ce)"><g clip-path="url(#bff955bf6c)"><g clip-path="url(#0a358edd40)"><path fill="#6d28d9" d="M 162.085938 37.863281 L 162.992188 37.554688 L 161.238281 49.609375 Z M 163.929688 60.140625 L 165.171875 48.078125 L 164.539062 48.292969 Z M 163.929688 60.140625 " fill-opacity="1" fill-rule="nonzero"/></g></g></g><g fill="#ffffff" fill-opacity="1"><g transform="translate(219.80709, 58.323429)"><g><path d="M 6.671875 0.421875 C 5.160156 0.421875 3.882812 -0.0820312 2.84375 -1.09375 C 1.800781 -2.101562 1.28125 -3.378906 1.28125 -4.921875 C 1.28125 -6.492188 1.789062 -7.769531 2.8125 -8.75 C 3.84375 -9.726562 5.128906 -10.21875 6.671875 -10.21875 C 8.253906 -10.21875 9.546875 -9.726562 10.546875 -8.75 C 11.554688 -7.769531 12.0625 -6.492188 12.0625 -4.921875 C 12.0625 -3.378906 11.550781 -2.101562 10.53125 -1.09375 C 9.507812 -0.0820312 8.222656 0.421875 6.671875 0.421875 Z M 6.671875 0.421875 "/></g></g></g></svg>