<svg xmlns="http://www.w3.org/2000/svg" xmlns:xlink="http://www.w3.org/1999/xlink" width="500" zoomAndPan="magnify" viewBox="0 0 375 374.999991" height="500" preserveAspectRatio="xMidYMid meet" version="1.0"><defs><g/><clipPath id="c71da88f88"><path d="M 218 181 L 226 181 L 226 206 L 218 206 Z M 218 181 " clip-rule="nonzero"/></clipPath><clipPath id="d3f0462e00"><path d="M 213.675781 185.257812 L 224.320312 181.617188 L 231.359375 202.195312 L 220.714844 205.835938 Z M 213.675781 185.257812 " clip-rule="nonzero"/></clipPath><clipPath id="c8c4e69f05"><path d="M 213.675781 185.257812 L 224.320312 181.617188 L 231.359375 202.195312 L 220.714844 205.835938 Z M 213.675781 185.257812 " clip-rule="nonzero"/></clipPath><clipPath id="fa1d612a7c"><path d="M 218 183 L 222 183 L 222 206 L 218 206 Z M 218 183 " clip-rule="nonzero"/></clipPath><clipPath id="10a5494b50"><path d="M 213.675781 185.257812 L 224.320312 181.617188 L 231.359375 202.195312 L 220.714844 205.835938 Z M 213.675781 185.257812 " clip-rule="nonzero"/></clipPath><clipPath id="4b38250bdf"><path d="M 213.675781 185.257812 L 224.320312 181.617188 L 231.359375 202.195312 L 220.714844 205.835938 Z M 213.675781 185.257812 " clip-rule="nonzero"/></clipPath></defs><g fill="#000000" fill-opacity="1"><g transform="translate(103.222396, 204.223405)"><g><path d="M 45.515625 -25.734375 L 36.359375 0 L 27.625 0 L 22.78125 -14 L 17.75 0 L 9.015625 0 L -0.140625 -25.734375 L 8.40625 -25.734375 L 13.671875 -10.15625 L 19.125 -25.734375 L 26.8125 -25.734375 L 32.140625 -10.015625 L 37.59375 -25.734375 Z M 45.515625 -25.734375 "/></g></g></g><g fill="#000000" fill-opacity="1"><g transform="translate(143.753189, 204.223405)"><g><path d="M 19.65625 -26.15625 C 22.851562 -26.15625 25.421875 -25.203125 27.359375 -23.296875 C 29.304688 -21.398438 30.28125 -18.539062 30.28125 -14.71875 L 30.28125 0 L 21.265625 0 L 21.265625 -13.25 C 21.265625 -16.757812 19.859375 -18.515625 17.046875 -18.515625 C 15.492188 -18.515625 14.25 -18.003906 13.3125 -16.984375 C 12.382812 -15.972656 11.921875 -14.457031 11.921875 -12.4375 L 11.921875 0 L 2.890625 0 L 2.890625 -35.21875 L 11.921875 -35.21875 L 11.921875 -23.359375 C 12.898438 -24.273438 14.050781 -24.96875 15.375 -25.4375 C 16.707031 -25.914062 18.132812 -26.15625 19.65625 -26.15625 Z M 19.65625 -26.15625 "/></g></g></g><g fill="#000000" fill-opacity="1"><g transform="translate(171.944128, 204.223405)"><g><path d="M 30 -25.734375 L 18.890625 1.046875 C 17.597656 4.210938 16.015625 6.4375 14.140625 7.71875 C 12.273438 9 10 9.640625 7.3125 9.640625 C 5.945312 9.640625 4.578125 9.425781 3.203125 9 C 1.828125 8.570312 0.710938 8.007812 -0.140625 7.3125 L 2.984375 1 C 3.492188 1.46875 4.101562 1.835938 4.8125 2.109375 C 5.53125 2.378906 6.253906 2.515625 6.984375 2.515625 C 7.835938 2.515625 8.539062 2.335938 9.09375 1.984375 C 9.644531 1.640625 10.109375 1.085938 10.484375 0.328125 L -0.515625 -25.734375 L 8.734375 -25.734375 L 15.046875 -10.015625 L 21.40625 -25.734375 Z M 30 -25.734375 "/></g></g></g><g fill="#6d28d9" fill-opacity="1"><g transform="translate(196.5388, 204.223405)"><g><path d="M 36.40625 -26.15625 C 39.570312 -26.15625 42.09375 -25.203125 43.96875 -23.296875 C 45.851562 -21.398438 46.796875 -18.539062 46.796875 -14.71875 L 46.796875 0 L 37.78125 0 L 37.78125 -13.25 C 37.78125 -15.050781 37.441406 -16.378906 36.765625 -17.234375 C 36.085938 -18.085938 35.128906 -18.515625 33.890625 -18.515625 C 32.523438 -18.515625 31.429688 -18.039062 30.609375 -17.09375 C 29.796875 -16.144531 29.390625 -14.703125 29.390625 -12.765625 L 29.390625 0 L 20.359375 0 L 20.359375 -13.25 C 20.359375 -16.757812 19.0625 -18.515625 16.46875 -18.515625 C 15.082031 -18.515625 13.976562 -18.039062 13.15625 -17.09375 C 12.332031 -16.144531 11.921875 -14.703125 11.921875 -12.765625 L 11.921875 0 L 2.890625 0 L 2.890625 -25.734375 L 11.484375 -25.734375 L 11.484375 -23.015625 C 12.429688 -24.066406 13.5625 -24.851562 14.875 -25.375 C 16.1875 -25.894531 17.617188 -26.15625 19.171875 -26.15625 C 20.984375 -26.15625 22.597656 -25.820312 24.015625 -25.15625 C 25.441406 -24.488281 26.597656 -23.476562 27.484375 -22.125 C 28.492188 -23.414062 29.773438 -24.410156 31.328125 -25.109375 C 32.878906 -25.804688 34.570312 -26.15625 36.40625 -26.15625 Z M 36.40625 -26.15625 "/></g></g></g><g fill="#000000" fill-opacity="1"><g transform="translate(241.304422, 204.223405)"><g><path d="M 29.1875 -12.8125 C 29.1875 -12.75 29.140625 -12.003906 29.046875 -10.578125 L 10.34375 -10.578125 C 10.726562 -9.253906 11.460938 -8.234375 12.546875 -7.515625 C 13.640625 -6.804688 15.007812 -6.453125 16.65625 -6.453125 C 17.894531 -6.453125 18.960938 -6.625 19.859375 -6.96875 C 20.765625 -7.320312 21.675781 -7.894531 22.59375 -8.6875 L 27.34375 -3.75 C 24.84375 -0.96875 21.1875 0.421875 16.375 0.421875 C 13.363281 0.421875 10.71875 -0.144531 8.4375 -1.28125 C 6.164062 -2.414062 4.40625 -3.992188 3.15625 -6.015625 C 1.90625 -8.046875 1.28125 -10.34375 1.28125 -12.90625 C 1.28125 -15.4375 1.890625 -17.707031 3.109375 -19.71875 C 4.328125 -21.726562 6.007812 -23.300781 8.15625 -24.4375 C 10.3125 -25.582031 12.734375 -26.15625 15.421875 -26.15625 C 17.984375 -26.15625 20.304688 -25.625 22.390625 -24.5625 C 24.484375 -23.5 26.140625 -21.960938 27.359375 -19.953125 C 28.578125 -17.953125 29.1875 -15.570312 29.1875 -12.8125 Z M 15.46875 -19.75 C 14.082031 -19.75 12.921875 -19.351562 11.984375 -18.5625 C 11.046875 -17.769531 10.453125 -16.691406 10.203125 -15.328125 L 20.75 -15.328125 C 20.488281 -16.691406 19.890625 -17.769531 18.953125 -18.5625 C 18.023438 -19.351562 16.863281 -19.75 15.46875 -19.75 Z M 15.46875 -19.75 "/></g></g></g><g clip-path="url(#c71da88f88)"><g clip-path="url(#d3f0462e00)"><g clip-path="url(#c8c4e69f05)"><path fill="#ffffff" d="M 218.867188 183.480469 L 224.144531 181.675781 L 222.382812 190.199219 L 225.476562 189.140625 L 220.714844 205.824219 L 221.324219 193.941406 L 218.015625 195.257812 Z M 218.867188 183.480469 " fill-opacity="1" fill-rule="nonzero"/></g></g></g><g clip-path="url(#fa1d612a7c)"><g clip-path="url(#10a5494b50)"><g clip-path="url(#4b38250bdf)"><path fill="#6d28d9" d="M 218.867188 183.480469 L 219.777344 183.171875 L 218.015625 195.257812 Z M 220.714844 205.824219 L 221.960938 193.722656 L 221.324219 193.941406 Z M 220.714844 205.824219 " fill-opacity="1" fill-rule="nonzero"/></g></g></g><g fill="#000000" fill-opacity="1"><g transform="translate(276.758308, 203.999987)"><g><path d="M 6.6875 0.421875 C 5.175781 0.421875 3.894531 -0.0820312 2.84375 -1.09375 C 1.800781 -2.101562 1.28125 -3.382812 1.28125 -4.9375 C 1.28125 -6.519531 1.789062 -7.800781 2.8125 -8.78125 C 3.84375 -9.757812 5.132812 -10.25 6.6875 -10.25 C 8.269531 -10.25 9.566406 -9.757812 10.578125 -8.78125 C 11.597656 -7.800781 12.109375 -6.519531 12.109375 -4.9375 C 12.109375 -3.382812 11.59375 -2.101562 10.5625 -1.09375 C 9.53125 -0.0820312 8.238281 0.421875 6.6875 0.421875 Z M 6.6875 0.421875 "/></g></g></g></svg>